<?xml version="1.0" encoding="UTF-8" standalone="no"?>
<!-- Created with Inkscape (http://www.inkscape.org/) -->

<svg
   width="451.73193mm"
   height="361.16626mm"
   viewBox="0 0 451.73193 361.16626"
   version="1.1"
   id="svg5"
   xml:space="preserve"
   inkscape:version="1.2 (dc2aedaf03, 2022-05-15)"
   sodipodi:docname="drawing.txt"
   inkscape:export-filename="asdsada.svg"
   inkscape:export-xdpi="96"
   inkscape:export-ydpi="96"
   xmlns:inkscape="http://www.inkscape.org/namespaces/inkscape"
   xmlns:sodipodi="http://sodipodi.sourceforge.net/DTD/sodipodi-0.dtd"
   xmlns="http://www.w3.org/2000/svg"
   xmlns:svg="http://www.w3.org/2000/svg"><sodipodi:namedview
     id="namedview7"
     pagecolor="#ffffff"
     bordercolor="#000000"
     borderopacity="0.25"
     inkscape:showpageshadow="2"
     inkscape:pageopacity="0.0"
     inkscape:pagecheckerboard="0"
     inkscape:deskcolor="#d1d1d1"
     inkscape:document-units="mm"
     showgrid="false"
     inkscape:zoom="8.4359982"
     inkscape:cx="-24.359892"
     inkscape:cy="650.07127"
     inkscape:window-width="1920"
     inkscape:window-height="1017"
     inkscape:window-x="-8"
     inkscape:window-y="418"
     inkscape:window-maximized="1"
     inkscape:current-layer="layer1" /><defs
     id="defs2" /><g
     inkscape:label="Layer 1"
     inkscape:groupmode="layer"
     id="layer1"
     transform="translate(148.58605,2.8610791)"><path
       style="fill:#000000;stroke-width:0.264583"
       d="m 56.658901,252.53585 c -4.235976,-0.51581 -7.40973,-0.86391 -12.038541,-1.32041 -5.171657,-0.51003 -7.365632,-0.73913 -15.081249,-1.57483 -9.152242,-0.99131 -18.152946,-1.95162 -22.3572908,-2.38537 -2.037292,-0.21017 -7.570353,-0.80131 -12.295693,-1.31362 -4.72534,-0.51232 -8.7436992,-0.93148 -8.9296882,-0.93148 -0.185988,0 -0.33816,-0.10323 -0.33816,-0.2294 0,-0.12616 2.232422,-0.30976 4.9609372,-0.40799 2.728516,-0.0982 5.55625,-0.22856 6.283854,-0.28962 0.727604,-0.0611 3.168386,-0.17786 5.423958,-0.25954 2.255573,-0.0817 5.351198,-0.2088 6.879167,-0.28247 3.1856278,-0.1536 18.3688768,-0.80451 24.9369778,-1.06906 2.437474,-0.0982 4.431771,-0.2789 4.431771,-0.40161 0,-0.7252 -1.769624,-1.24045 -6.746875,-1.96444 -0.727604,-0.10584 -1.187667,-0.24173 -1.022361,-0.30198 0.165307,-0.0602 1.443948,0.0745 2.841424,0.29933 2.953501,0.47526 3.155429,0.48729 2.963347,0.17649 -0.236027,-0.3819 1.30607,-0.56138 4.823361,-0.56138 h 3.321918 l 1.651863,1.07623 1.651862,1.07623 6.833251,-0.28748 c 3.758287,-0.15811 12.191063,-0.52313 18.739502,-0.81114 6.54844,-0.28802 16.43062,-0.70673 21.96041,-0.93048 5.529784,-0.22376 12.614004,-0.52007 15.742704,-0.65848 3.1287,-0.13841 6.22432,-0.26752 6.87917,-0.28691 l 1.19062,-0.0353 -1.05833,-0.22472 c -0.58208,-0.1236 -3.36191,-0.46961 -6.1774,-0.76891 -3.02944,-0.32205 -5.24353,-0.67679 -5.42396,-0.86902 -0.16769,-0.17866 -0.45406,-0.51557 -0.63638,-0.74869 l -0.33148,-0.42386 4.07124,-7.77719 4.07125,-7.77718 0.16493,-5.42396 c 0.0907,-2.98318 0.24099,-9.23396 0.33395,-13.89063 l 0.16902,-8.46666 -4.86746,-0.0261 c -2.6771,-0.0144 -8.91558,-0.34386 -13.863284,-0.73222 -8.50511,-0.66756 -11.54175,-0.8973 -24.87084,-1.88155 -3.05593,-0.22566 -7.021246,-0.52767 -8.811803,-0.67113 -1.790557,-0.14348 -3.590099,-0.26086 -3.998986,-0.26086 h -0.743426 l -4.157218,5.43277 c -4.86011,6.35134 -4.904788,6.42702 -4.915019,8.32556 -0.0043,0.80037 -0.361984,4.72943 -0.794827,8.73125 -1.154308,10.6721 -2.318668,22.02958 -2.526697,24.64604 -0.251393,3.1619 -0.01087,2.98869 -4.28835,3.08822 l -3.666038,0.0853 -0.355417,-0.42826 -0.355417,-0.42825 0.714991,-7.19767 c 0.393245,-3.95872 0.785696,-7.59992 0.872112,-8.09156 0.102983,-0.5859 0.05849,-0.85939 -0.129122,-0.79375 -0.254545,0.0891 -11.504837,12.81094 -13.249788,14.98294 -0.477367,0.59419 -0.915644,0.85989 -1.418426,0.85989 l -0.727604,1e-5 v -0.64584 c 0,-0.35521 0.11198,-0.71505 0.248846,-0.79964 0.232775,-0.14387 4.049688,-4.50038 12.123882,-13.83786 l 3.418475,-3.95334 0.179451,-1.82489 c 0.0987,-1.00369 0.356206,-3.72989 0.572244,-6.05822 0.216034,-2.32833 0.521739,-5.18583 0.679344,-6.34999 0.59351,-4.38408 1.759624,-16.67608 1.598625,-16.8511 -0.09226,-0.10029 -3.441961,-0.43137 -7.443784,-0.73574 C 14.263139,185.5905 9.1010572,185.2045 3.4776532,184.809 c -7.245423,-0.50957 -7.276041,-0.51449 -7.276041,-1.16942 0,-0.68732 -1.289769,-0.4062 15.2135408,-3.31587 1.164167,-0.20525 3.843073,-0.68432 5.953125,-1.0646 2.110052,-0.38028 4.788958,-0.85628 5.953125,-1.05779 1.164166,-0.20151 3.128697,-0.54797 4.365624,-0.76991 11.335636,-2.03396 15.075125,-2.70077 21.088585,-3.7604 l 6.933379,-1.22173 8.809329,0.9784 c 4.845136,0.53812 9.226046,1.02913 9.735376,1.09113 0.50932,0.062 6.40291,0.70967 13.09687,1.43926 6.69396,0.72959 14.135354,1.5536 16.536454,1.83114 2.40109,0.27753 19.81398,2.2101 38.69531,4.2946 l 34.32969,3.78999 v 0.59629 c 0,0.32795 -0.14883,0.5973 -0.33073,0.59855 -0.18191,0.001 -1.69995,0.1237 -3.37344,0.27212 -1.67349,0.14842 -7.86474,0.68187 -13.75833,1.18543 -5.8936,0.50356 -12.73969,1.09121 -15.21355,1.30589 -2.47385,0.21469 -5.53576,0.46789 -6.80424,0.56267 -2.84109,0.21229 -2.78251,0.1673 -4.567,3.50725 -1.67428,3.13367 -1.68395,3.18148 -0.80983,4.00267 l 0.65122,0.61179 -0.71474,1.21962 -0.71474,1.21962 0.0908,18.16426 0.0908,18.16426 -0.56915,0.18064 c -0.32206,0.10222 -0.73594,0.0422 -0.95333,-0.1382 l -0.38418,-0.31884 -0.005,-16.30562 -0.005,-16.30562 -1.73339,3.30729 c -3.84779,7.3415 -4.98945,9.47439 -6.01895,11.24479 -3.45433,5.94031 -9.65947,17.98628 -9.36235,18.17505 0.17779,0.11297 0.91857,0.22411 1.64618,0.24699 l 1.32291,0.0416 -1.05833,0.21097 c -0.81267,0.16199 -0.65458,0.18338 0.68108,0.0921 0.95667,-0.0654 4.64761,0.16862 8.20208,0.51992 3.55447,0.35132 7.59377,0.69591 8.97621,0.76577 l 2.51355,0.12702 -1.32292,-0.34089 c -1.81421,-0.46748 -0.98662,-0.46283 1.68403,0.009 2.52426,0.44641 4.81118,0.58159 31.38888,1.85539 10.62302,0.50914 24.19615,1.16091 30.1625,1.44839 5.96636,0.28748 11.43331,0.52398 12.14879,0.52555 0.71547,0.002 1.23106,0.0727 1.14574,0.15798 -0.16037,0.16038 -11.15763,0.97784 -29.96328,2.22728 -7.55916,0.50223 -15.61815,1.05156 -17.3302,1.1813 -0.94589,0.0717 -4.63683,0.31893 -8.20209,0.54946 -3.56526,0.23052 -11.54244,0.77262 -17.72708,1.20466 -6.18463,0.43205 -13.03073,0.90205 -15.21354,1.04444 -2.18281,0.1424 -6.64766,0.43686 -9.92188,0.65435 -3.27421,0.2175 -6.96515,0.45491 -8.20208,0.52758 -4.959084,0.29137 -14.498244,0.92593 -15.742704,1.04724 -0.7276,0.0709 -3.34698,0.24996 -5.82083,0.39786 -2.47385,0.1479 -5.15276,0.3259 -5.95312,0.39555 -0.80037,0.0696 -2.82443,0.1986 -4.49792,0.28656 -1.67349,0.088 -3.57849,0.21069 -4.233334,0.27273 -3.157582,0.29912 -7.825649,0.28253 -10.451041,-0.0372 z m 60.793049,-14.57843 c -0.17913,-0.0725 -0.53632,-0.0769 -0.79375,-0.01 -0.25743,0.0671 -0.11087,0.12639 0.32569,0.13178 0.43657,0.005 0.64719,-0.0495 0.46806,-0.12197 z m -75.742007,-5.91186 c 0,-0.14553 -0.245152,-0.26459 -0.544782,-0.26459 -0.29963,0 -0.471196,0.11906 -0.381259,0.26459 0.08994,0.14552 0.335089,0.26458 0.544782,0.26458 0.209693,0 0.381259,-0.11906 0.381259,-0.26458 z m 76.393227,-19.97605 c 0.51401,-1.01864 1.79387,-3.39989 2.84413,-5.29166 1.05026,-1.89177 2.66932,-4.8981 3.59791,-6.68073 l 1.68834,-3.24115 h 0.80496 0.80495 l 1.38324,-2.7813 c 0.76078,-1.52972 1.38323,-2.84957 1.38323,-2.93299 0,-0.13396 -2.95563,0.0481 -4.7625,0.2933 -0.3638,0.0494 -2.62599,0.23401 -5.02708,0.41029 -2.40109,0.17628 -4.4498,0.39437 -4.55268,0.48464 -0.10287,0.0903 -0.26125,5.52111 -0.35195,12.06853 l -0.1649,11.90441 0.7089,-1.19063 c 0.38989,-0.65484 1.12944,-2.02406 1.64345,-3.04271 z m -65.85028,-19.44687 2.903998,-3.83646 -1.36566,-0.17227 c -0.751112,-0.0948 -1.974763,-0.18405 -2.719223,-0.19844 l -1.353566,-0.0262 -0.313002,3.37344 c -0.172151,1.85539 -0.37928,3.71497 -0.460283,4.13239 -0.243633,1.25551 0.24982,0.76731 3.307736,-3.27249 z m -23.171765,46.91248 c 0.257431,-0.0671 0.614619,-0.0627 0.79375,0.01 0.179131,0.0725 -0.03149,0.12737 -0.468056,0.12197 -0.436562,-0.005 -0.583126,-0.0647 -0.325694,-0.13177 z m -1.857118,-0.26362 c 0.254661,-0.0665 0.67138,-0.0665 0.926041,0 0.254662,0.0666 0.0463,0.121 -0.463021,0.121 -0.509323,0 -0.717682,-0.0545 -0.46302,-0.121 z m -1.582465,-0.26555 c 0.257431,-0.0671 0.614619,-0.0627 0.79375,0.01 0.17913,0.0725 -0.03149,0.12736 -0.468056,0.12197 -0.436563,-0.005 -0.583126,-0.0647 -0.325694,-0.13178 z m -1.724827,-0.25646 c 0.181901,-0.0734 0.479557,-0.0734 0.661458,0 0.181901,0.0734 0.03307,0.13346 -0.330729,0.13346 -0.363802,0 -0.51263,-0.0601 -0.330729,-0.13346 z m 107.310575,-0.53032 c 0.097,-0.097 0.25577,-0.097 0.35278,0 0.097,0.097 0.0176,0.17639 -0.17639,0.17639 -0.19402,0 -0.2734,-0.0794 -0.17639,-0.17639 z"
       id="path1273" /><g
       transform="matrix(0.03527778,0,0,-0.03527778,-148.40967,407.65879)"
       fill="#000000"
       stroke="none"
       id="g1475"><path
         d="m 6314,4770 -29,-80 h -100 -99 l 74,77 c 75,77 65,71 -40,-26 l -55,-51 -100,1 c -94,0 -98,1 -72,15 15,8 27,17 27,20 0,3 -16,-4 -36,-15 -40,-24 -6,-22 -474,-20 -102,1 -194,1 -205,1 -11,0 -146,0 -300,0 -154,0 -291,1 -305,0 -14,0 -216,-1 -450,-3 l -425,-3 360,-6 c 198,-3 349,-7 335,-8 -14,-2 -20,-5 -15,-8 6,-2 53,2 106,9 114,14 593,12 569,-3 -19,-12 -18,-12 65,3 43,7 132,11 230,9 148,-3 158,-4 135,-18 -17,-10 -18,-13 -5,-9 63,22 95,25 200,23 l 117,-3 -130,-72 -129,-73 -184,1 h -184 l 143,56 c 78,31 141,58 139,60 -2,2 -75,-24 -163,-57 l -159,-60 -278,2 -278,3 231,59 c 126,33 228,61 226,63 -2,2 -120,-25 -263,-61 l -260,-66 -424,1 -424,1 354,61 c 195,34 349,63 344,64 -6,2 -186,-26 -400,-62 l -390,-65 -634,2 -634,3 195,22 c 590,66 863,98 845,101 -11,1 -282,-27 -602,-63 l -581,-65 -964,1 c -530,1 -954,3 -943,5 11,1 313,24 670,51 358,26 638,49 624,51 -15,2 -213,-11 -440,-28 -805,-60 -945,-70 -1037,-76 -243,-18 -12,-24 891,-25 854,-1 968,-3 872,-14 C 1562,4460 30,4290 16,4290 c -9,0 -16,-4 -16,-10 0,-7 343,-10 1008,-11 554,0 1003,-2 997,-4 -12,-5 -1978,-335 -1994,-335 -6,0 -11,-7 -11,-15 0,-13 121,-15 1007,-17 953,-3 1004,-4 943,-19 -36,-9 -487,-123 -1002,-253 C 433,3496 8,3390 5,3390 c -3,0 -5,-9 -5,-20 0,-20 8,-20 1012,-22 l 1013,-3 -70,-27 c -39,-15 -164,-63 -280,-106 C 1288,3066 778,2872 415,2735 217,2659 43,2593 28,2588 6,2580 0,2572 0,2549 v -29 l 991,-2 991,-3 -987,-555 -986,-555 78,-3 78,-3 970,561 970,560 h 808 c 717,0 845,-3 799,-22 -5,-1 -256,-233 -558,-513 -302,-281 -567,-528 -589,-548 l -40,-36 h 85 85 l 575,559 575,560 h 814 c 770,0 813,-1 806,-17 -4,-10 -94,-252 -201,-538 -107,-286 -199,-530 -204,-542 -9,-23 -9,-23 74,-23 h 85 l 164,502 c 91,277 173,529 183,561 l 18,57 h 816 816 l 18,-57 c 10,-32 92,-284 183,-560 l 164,-503 h 85 c 47,0 83,3 81,8 -3,4 -95,248 -205,542 -110,294 -203,543 -207,553 -7,16 36,17 806,17 h 814 l 575,-560 575,-559 h 85 85 l -63,57 c -261,238 -1131,1049 -1131,1055 -1,4 362,7 807,7 h 807 l 970,-560 970,-561 78,3 78,3 -986,555 -987,555 991,3 991,2 v 29 c 0,23 -6,31 -27,39 -16,5 -309,117 -653,247 -344,130 -724,274 -845,320 -121,46 -280,106 -354,134 -74,28 -137,53 -139,56 -3,3 450,5 1006,5 1005,0 1012,0 1012,20 0,11 -2,20 -5,20 -3,0 -428,106 -943,236 -515,130 -966,244 -1002,253 -61,15 -10,16 943,19 886,2 1007,4 1007,17 0,8 -5,15 -11,15 -17,0 -1982,330 -1994,335 -5,2 443,4 998,4 664,1 1007,4 1007,11 0,6 -7,10 -16,10 -14,0 -1546,170 -1839,205 -96,11 18,13 873,14 902,1 1133,7 890,25 -92,6 -232,16 -1037,76 -227,17 -425,30 -440,28 -14,-2 267,-25 624,-51 358,-27 659,-50 670,-51 11,-2 -413,-4 -943,-5 l -964,-1 -581,65 c -320,36 -591,64 -602,63 -18,-3 255,-35 845,-101 l 195,-22 -634,-3 -634,-2 -390,65 c -214,36 -394,64 -400,62 -5,-1 149,-30 344,-64 l 354,-61 -425,-1 -425,-1 -273,69 c -151,38 -276,72 -279,75 -12,12 482,11 576,-1 53,-7 101,-11 106,-9 6,3 -1,6 -15,8 -14,1 137,5 335,8 l 360,6 -425,3 c -234,2 -436,3 -450,3 -14,1 -151,0 -305,0 -154,0 -289,0 -300,0 -11,0 -103,0 -205,-1 -468,-2 -434,-4 -474,20 -20,11 -36,18 -36,15 0,-3 12,-12 28,-20 25,-14 21,-15 -73,-15 l -100,-1 -55,51 c -105,97 -115,103 -40,26 l 74,-77 h -99 -100 l -29,80 c -16,45 -30,79 -33,77 -2,-3 8,-37 22,-78 14,-40 25,-74 25,-76 0,-2 -45,-3 -100,-3 -55,0 -100,1 -100,3 0,2 11,36 25,76 14,41 24,75 22,78 -3,2 -17,-32 -33,-77 z m 1639,-171 248,-64 -278,-3 -278,-2 -159,60 c -88,33 -161,59 -163,57 -2,-2 61,-29 139,-60 l 143,-56 h -184 l -184,-1 -111,62 c -61,34 -120,67 -130,74 -16,11 35,13 279,13 164,0 300,2 302,4 7,7 121,-18 376,-84 z m -1978,6 -80,-74 -155,-1 h -155 l 130,75 130,74 h 105 105 z m 277,0 -27,-75 h -155 l -155,1 78,74 79,75 h 103 104 z m 276,7 c 12,-38 22,-71 22,-75 0,-4 -67,-7 -150,-7 -82,0 -150,3 -150,7 0,4 10,37 22,75 l 22,68 h 106 106 z m 279,-7 78,-74 -155,-1 h -155 l -27,75 -27,75 h 104 103 z m 278,0 130,-75 h -155 l -155,1 -80,74 -80,74 h 105 105 z M 3380,4495 c -41,-7 -331,-56 -644,-109 l -569,-96 -976,1 -976,1 245,29 c 135,15 324,37 420,48 96,12 375,43 620,71 245,27 472,54 505,59 33,5 373,8 755,9 600,0 685,-2 620,-13 z m 635,-95 -430,-110 -650,1 -650,1 160,28 c 88,16 243,43 345,60 102,17 309,53 460,80 l 275,48 h 460 l 460,1 z m 1074,106 c -2,-2 -130,-51 -284,-110 l -280,-106 -430,1 c -366,1 -423,3 -385,14 25,7 189,49 365,95 176,45 340,88 365,95 31,9 138,13 349,14 167,0 302,-1 300,-3 z m 430,0 c -2,-2 -89,-51 -193,-110 l -188,-106 -279,2 -279,3 273,106 272,107 199,1 c 110,1 197,-1 195,-3 z m 269,-74 c -46,-44 -99,-93 -120,-111 l -36,-31 -226,2 -227,3 183,107 183,106 163,1 163,1 z m 388,-32 -41,-110 h -234 -233 l 113,110 114,109 161,1 h 161 z m 421,5 c 18,-55 33,-103 33,-107 0,-5 -103,-8 -230,-8 -126,0 -230,3 -230,6 0,7 61,197 67,207 2,4 77,6 166,5 l 161,-3 z m 422,-5 113,-110 h -233 -234 l -41,110 -41,110 h 161 l 161,-1 z m 415,3 187,-108 -227,-3 -226,-2 -36,31 c -21,18 -74,67 -120,111 l -83,78 h 159 160 z m 508,0 278,-108 -279,-3 -279,-2 -188,106 c -104,59 -191,108 -193,110 -2,2 83,4 189,4 h 194 z m 431,88 c 39,-11 207,-54 372,-97 165,-42 320,-82 345,-89 38,-11 -19,-13 -385,-14 l -430,-1 -280,106 c -154,59 -282,108 -284,110 -2,2 129,4 293,4 261,0 305,-2 369,-19 z m 1345,-61 c 257,-44 541,-93 632,-109 l 165,-29 -650,-1 -650,-1 -430,110 -430,109 h 448 l 448,1 z m 1317,42 c 273,-33 759,-89 1254,-144 l 295,-33 -975,-3 -974,-2 -570,96 c -313,53 -604,102 -645,109 -65,11 24,13 640,11 l 715,-2 z M 3479,4266 c -2,-2 -302,-79 -666,-170 l -661,-166 -984,1 c -540,1 -972,4 -958,6 14,2 450,78 970,168 l 945,163 679,1 c 374,1 677,-1 675,-3 z m 941,-13 c -30,-13 -445,-172 -757,-289 l -91,-34 -652,2 -652,3 124,31 c 195,50 693,179 938,243 l 225,59 h 450 c 414,0 447,-1 415,-15 z m 667,11 c -3,-3 -137,-80 -298,-170 l -292,-164 -423,2 -424,3 428,167 427,166 294,1 c 162,1 292,-2 288,-5 z m 503,-18 c -14,-13 -96,-89 -183,-170 l -158,-146 h -351 -352 l 294,170 295,170 h 240 240 z m 530,15 c 0,-4 -27,-80 -59,-167 l -59,-159 -352,-3 -352,-2 173,169 174,170 238,1 c 130,0 237,-4 237,-9 z m 571,-148 c 28,-87 54,-164 57,-170 3,-10 -71,-13 -348,-13 -277,0 -351,3 -348,13 3,6 29,83 57,170 l 53,157 h 238 238 z m 638,-14 173,-169 -352,2 -352,3 -59,159 c -32,87 -59,163 -59,167 0,5 107,9 238,9 l 237,-1 z m 631,1 294,-170 h -352 -351 l -158,146 c -87,81 -169,157 -183,170 l -25,24 h 240 240 z m 757,3 433,-168 -424,-3 -423,-2 -292,164 c -161,90 -295,167 -298,170 -4,3 124,6 282,6 h 289 z m 751,106 c 130,-34 365,-95 522,-135 157,-41 343,-89 413,-106 l 129,-33 -652,-3 -652,-2 -91,34 c -312,117 -727,276 -757,289 -32,14 0,15 408,16 l 442,1 z m 2091,-95 c 498,-86 940,-162 981,-169 64,-11 -68,-13 -908,-14 l -984,-1 -661,166 c -364,91 -664,168 -666,170 -2,2 296,4 664,4 h 668 z M 3465,3891 c -31,-13 -429,-164 -870,-331 -220,-83 -411,-155 -425,-160 -16,-7 -384,-9 -1010,-8 l -984,3 89,22 c 50,13 169,43 265,68 96,25 272,71 390,101 118,30 265,68 325,84 61,16 218,57 350,91 132,34 305,78 385,99 l 145,38 680,1 c 374,0 671,-4 660,-8 z m 960,0 c -6,-5 -207,-119 -449,-255 l -438,-246 -641,2 -641,3 400,154 c 219,85 512,198 649,252 l 250,98 h 440 c 250,1 435,-3 430,-8 z m 760,-20 c -17,-16 -140,-131 -274,-255 l -244,-226 h -526 c -317,0 -520,4 -511,10 8,5 206,119 440,254 l 425,246 h 360 360 z m 768,-63 c -19,-51 -62,-166 -95,-255 l -60,-163 h -527 l -526,1 260,254 260,254 361,1 h 362 z m 892,-163 81,-250 -263,-3 c -145,-1 -381,-1 -526,0 l -263,3 78,240 c 43,132 80,246 83,253 3,10 82,12 366,10 l 362,-3 z m 950,0 260,-254 -526,-1 h -527 l -60,163 c -33,89 -76,204 -95,255 l -35,92 h 362 l 361,-1 z m 935,9 c 234,-135 432,-249 440,-254 9,-6 -194,-10 -511,-10 h -526 l -244,226 c -134,124 -257,239 -274,255 l -30,29 h 360 360 z m 802,132 c 161,-62 455,-176 652,-252 l 360,-139 -641,-3 -641,-2 -438,246 c -242,136 -443,250 -448,255 -6,5 178,9 426,9 h 437 z m 1367,53 c 130,-33 296,-76 369,-95 283,-73 405,-105 612,-158 118,-30 294,-76 390,-101 96,-25 215,-55 265,-68 l 89,-22 -984,-3 c -626,-1 -994,1 -1010,8 -14,5 -205,77 -425,160 -441,167 -839,318 -870,331 -11,4 283,8 654,8 l 674,1 z M 3445,3341 c -6,-5 -311,-178 -679,-385 l -668,-376 -967,2 c -913,3 -964,4 -921,20 44,16 1670,646 1840,713 l 85,34 h 660 c 396,1 655,-3 650,-8 z m 1165,-5 c -8,-8 -195,-181 -415,-385 l -400,-371 h -790 c -496,0 -784,4 -775,10 8,5 305,178 660,384 l 645,374 545,1 c 469,1 542,-1 530,-13 z m 1167,2 c -2,-7 -67,-181 -143,-385 l -139,-373 h -795 -795 l 30,28 c 17,16 195,189 397,385 l 367,357 h 542 c 429,0 540,-3 536,-12 z m 1290,-368 c 67,-206 123,-378 123,-382 0,-5 -355,-8 -790,-8 -434,0 -790,3 -790,6 0,8 241,747 247,757 2,4 248,6 545,5 l 542,-3 z m 1401,23 c 202,-196 380,-369 397,-385 l 30,-28 h -795 -795 l -139,373 c -76,204 -141,378 -143,385 -4,9 107,12 536,12 h 542 z m 1423,-9 c 349,-201 648,-374 664,-385 30,-18 20,-19 -760,-19 h -790 l -400,371 c -220,204 -407,377 -415,385 -12,12 59,14 527,14 h 540 z m 1101,237 c 1253,-486 1558,-605 1598,-619 43,-16 -9,-17 -921,-20 l -967,-2 -668,376 c -368,207 -673,380 -678,385 -6,5 251,9 647,9 h 656 z"
         id="path1307" /></g></g></svg>
